<?xml version="1.0" encoding="UTF-8" standalone="no"?>
<!-- Created with Inkscape (http://www.inkscape.org/) -->

<svg
   width="150"
   height="74"
   viewBox="0 0 203.8169 101.06542"
   version="1.1"
   id="svg5"
   xmlns="http://www.w3.org/2000/svg"
   xmlns:svg="http://www.w3.org/2000/svg">
  <defs
     id="defs2" />
  <g
     id="layer1"
     transform="translate(-3.0537634,-2.7056801)">
    <path
       style="fill:#f32e00;fill-opacity:1;stroke:#000000;stroke-width:1.93685;stroke-dasharray:none;stroke-opacity:1"
       d="M 102.9672,102.70581 77.357842,91.194364 77.241607,74.259984 5.5757731,10.532521 l 51.1583789,-0.44102 12.128065,8.82041 0.661531,12.569086 21.452673,-0.220511 V 16.045278 l 3.528168,-4.630716 h 6.174281 l 9.48194,-7.2768392 3.08715,-0.44102 4.63071,1.543571 3.52817,2.205103 v 4.4102052 l -14.11266,7.056329 1.76408,1.984592 12.56909,-6.615308 1.32306,2.866634 -0.88204,2.205103 -2.64613,-0.220511 -5.95377,4.410206 v 7.93837 l 25.64728,-0.441021 V 18.911911 l 12.15679,-9.4819412 52.95831,-0.220511 -75.52663,64.4444252 -0.13796,17.08895 z"
       id="path1941" />
    <path
       id="rect234"
       style="stroke-width:0.389077"
       d="m 103.39591,92.202664 c 0,0 -13.03526,-6.4648 -17.908921,-15.13971 -4.87366,-8.6749 -1.612662,-36.88055 -1.612662,-36.88055 l 0.111872,-0.11187 h 38.819421 l 0.11187,0.11187 c 0,0 3.45011,28.64511 -1.51027,37.30915 -4.96037,8.66405 -18.01131,14.71111 -18.01131,14.71111 z" />
    <path
       id="path387"
       style="stroke-width:0.164321"
       d="m 81.748769,36.378774 10.73967,3.69176 10.739661,-4.81048 10.85154,4.82046 10.85154,-3.68179 -2.01369,8.30099 c -0.001,0.005 -0.0125,0.0105 -0.0327,0.0141 -0.0202,0.004 -0.0482,0.006 -0.0792,0.006 0,0 -5.39228,2.17502 -19.40971,2.17502 -14.017434,0 -19.409711,-2.17502 -19.409711,-2.17502 -0.02624,-0.003 -0.05896,-0.002 -0.07918,-0.006 -0.02022,-0.004 -0.0327,-0.009 -0.0327,-0.0141 l -2.23743,-8.30099 0.05594,-0.01 z" />
    <path
       id="rect1884"
       style="fill:#f32e00;stroke-width:0.389077"
       d="m 103.61965,58.529334 c 2.27951,-12.2799 23.44185,-6.42559 13.81613,8.27849 l -0.0327,0.0792 -0.0792,0.0327 -13.70426,14.76704 -13.70426,-14.76704 -0.07918,-0.0327 -0.0327,-0.0792 c -10.006674,-14.07008 11.95558,-20.72656 13.81613,-8.27849 z" />
  </g>
</svg>
